# xmcd
#
# Track frame offsets:
#   182
#   11832
#   22820
#   36995
#   50207
#   63845
#   78207
#   92307
#   104207
#   115970
#   133245
#   142032
#   152657
#
# Disc length: 2205 seconds
#
# Revision: 5
# Processed by: cddbd v1.5.1PL0 Copyright (c) Steve Scherf et al.
# Submitted via: Media_Universe 3.0
#
DISCID=af089b0d
DTITLE=Topi Sorsakoski and Agents - Pop
DYEAR=1988
DGENRE=Suomi Pop
TTITLE0=Tyhjää
TTITLE1=Varjojen yö
TTITLE2=On kesä yö
TTITLE3=Sulle aatoksein suon
TTITLE4=Jo riittää
TTITLE5=Kuin yö
TTITLE6=Tuo onneton
TTITLE7=Tuulen viem
TTITLE8=Lumottu meri
TTITLE9=Vaikene sydän
TTITLE10=Nyt kaikki muuttunut on
TTITLE11=Päivät ilman sinua
TTITLE12=Vain yksin me kaksi
EXTD=
EXTT0=
EXTT1=
EXTT2=
EXTT3=
EXTT4=
EXTT5=
EXTT6=
EXTT7=
EXTT8=
EXTT9=
EXTT10=
EXTT11=
EXTT12=
PLAYORDER=
